<svg width="24" height="24" viewBox="0 0 24 24" fill="none" xmlns="http://www.w3.org/2000/svg">
<path d="M7.79292 8.998C7.60539 8.81799 7.50005 8.57385 7.50005 8.31929C7.50005 8.06473 7.60539 7.82059 7.79292 7.64059L11.2929 4.28105C11.4805 4.10109 11.7348 4 12 4C12.2652 4 12.5195 4.10109 12.7071 4.28105L16.2071 7.64059C16.3921 7.82109 16.4953 8.06446 16.4942 8.31767C16.4932 8.57089 16.3879 8.81344 16.2013 8.99249C16.0148 9.17155 15.7621 9.27259 15.4983 9.27363C15.2345 9.27466 14.981 9.17559 14.7929 8.998L13 7.27704V13.9208C13 14.1754 12.8946 14.4196 12.7071 14.5996C12.5196 14.7796 12.2652 14.8807 12 14.8807C11.7348 14.8807 11.4804 14.7796 11.2929 14.5996C11.1054 14.4196 11 14.1754 11 13.9208V7.27704L9.20708 8.998C9.01953 9.17796 8.76519 9.27905 8.5 9.27905C8.23481 9.27905 7.98047 9.17796 7.79292 8.998ZM20 11.6811C19.7348 11.6811 19.4804 11.7823 19.2929 11.9623C19.1054 12.1423 19 12.3864 19 12.641V18.0803H5V12.641C5 12.3864 4.89464 12.1423 4.70711 11.9623C4.51957 11.7823 4.26522 11.6811 4 11.6811C3.73478 11.6811 3.48043 11.7823 3.29289 11.9623C3.10536 12.1423 3 12.3864 3 12.641V18.4002C3.00049 18.8244 3.17624 19.231 3.48869 19.5309C3.80115 19.8308 4.22479 19.9995 4.66667 20H19.3333C19.7752 19.9995 20.1989 19.8308 20.5113 19.5309C20.8238 19.231 20.9995 18.8244 21 18.4002V12.641C21 12.3864 20.8946 12.1423 20.7071 11.9623C20.5196 11.7823 20.2652 11.6811 20 11.6811Z" fill="black"/>
</svg>
